<mxfile host="app.diagrams.net" agent="Mozilla/5.0 (Macintosh; Intel Mac OS X 10_15_7) AppleWebKit/537.36 (KHTML, like Gecko) Chrome/126.0.0.0 Safari/537.36" version="26.1.0">
  <diagram name="第 1 页" id="d9FgsTTPN8frSzhK8Qig">
    <mxGraphModel dx="478" dy="230" grid="1" gridSize="10" guides="1" tooltips="1" connect="1" arrows="1" fold="1" page="1" pageScale="1" pageWidth="827" pageHeight="1169" math="0" shadow="0">
      <root>
        <mxCell id="0" />
        <mxCell id="1" parent="0" />
        <mxCell id="CI35cIFT2is_V0Kbj9Z2-83" value="" style="rounded=0;whiteSpace=wrap;html=1;fillColor=#dae8fc;strokeColor=#6c8ebf;" vertex="1" parent="1">
          <mxGeometry x="414" y="544.25" width="100" height="55.75" as="geometry" />
        </mxCell>
        <mxCell id="CI35cIFT2is_V0Kbj9Z2-32" value="" style="rounded=0;whiteSpace=wrap;html=1;fillColor=#f5f5f5;fontColor=#333333;strokeColor=#666666;" vertex="1" parent="1">
          <mxGeometry x="397" y="160" width="190" height="220" as="geometry" />
        </mxCell>
        <mxCell id="CI35cIFT2is_V0Kbj9Z2-29" value="" style="rounded=0;whiteSpace=wrap;html=1;fillColor=#e1d5e7;strokeColor=#9673a6;" vertex="1" parent="1">
          <mxGeometry x="410" y="320" width="160" height="50" as="geometry" />
        </mxCell>
        <mxCell id="CI35cIFT2is_V0Kbj9Z2-25" style="edgeStyle=orthogonalEdgeStyle;rounded=0;orthogonalLoop=1;jettySize=auto;html=1;exitX=0.5;exitY=1;exitDx=0;exitDy=0;entryX=0.5;entryY=0;entryDx=0;entryDy=0;startArrow=classic;startFill=1;strokeColor=#000000;" edge="1" parent="1" source="CI35cIFT2is_V0Kbj9Z2-16" target="CI35cIFT2is_V0Kbj9Z2-24">
          <mxGeometry relative="1" as="geometry" />
        </mxCell>
        <mxCell id="CI35cIFT2is_V0Kbj9Z2-16" value="具身智能大脑(手机)" style="rounded=0;whiteSpace=wrap;html=1;fillColor=#d5e8d4;strokeColor=#82b366;" vertex="1" parent="1">
          <mxGeometry x="410" y="180" width="160" height="40" as="geometry" />
        </mxCell>
        <mxCell id="CI35cIFT2is_V0Kbj9Z2-31" style="edgeStyle=orthogonalEdgeStyle;rounded=0;orthogonalLoop=1;jettySize=auto;html=1;exitX=0.5;exitY=1;exitDx=0;exitDy=0;entryX=0.5;entryY=0;entryDx=0;entryDy=0;startArrow=classic;startFill=1;" edge="1" parent="1" source="CI35cIFT2is_V0Kbj9Z2-24" target="CI35cIFT2is_V0Kbj9Z2-29">
          <mxGeometry relative="1" as="geometry" />
        </mxCell>
        <mxCell id="CI35cIFT2is_V0Kbj9Z2-24" value="实时控制小脑" style="rounded=0;whiteSpace=wrap;html=1;fillColor=#f8cecc;strokeColor=#b85450;" vertex="1" parent="1">
          <mxGeometry x="410" y="250" width="160" height="40" as="geometry" />
        </mxCell>
        <mxCell id="CI35cIFT2is_V0Kbj9Z2-26" value="关节1" style="rounded=0;whiteSpace=wrap;html=1;" vertex="1" parent="1">
          <mxGeometry x="414" y="330" width="40" height="30" as="geometry" />
        </mxCell>
        <mxCell id="CI35cIFT2is_V0Kbj9Z2-28" value="关节n" style="rounded=0;whiteSpace=wrap;html=1;" vertex="1" parent="1">
          <mxGeometry x="526" y="330" width="40" height="30" as="geometry" />
        </mxCell>
        <mxCell id="CI35cIFT2is_V0Kbj9Z2-30" value="..." style="text;strokeColor=none;align=center;fillColor=none;html=1;verticalAlign=middle;whiteSpace=wrap;rounded=0;fontSize=17;" vertex="1" parent="1">
          <mxGeometry x="466" y="330" width="60" height="30" as="geometry" />
        </mxCell>
        <mxCell id="CI35cIFT2is_V0Kbj9Z2-33" value="" style="group" vertex="1" connectable="0" parent="1">
          <mxGeometry x="130" y="160" width="200" height="200" as="geometry" />
        </mxCell>
        <mxCell id="CI35cIFT2is_V0Kbj9Z2-15" value="" style="rounded=0;whiteSpace=wrap;html=1;fillColor=#ffe6cc;strokeColor=#d79b00;" vertex="1" parent="CI35cIFT2is_V0Kbj9Z2-33">
          <mxGeometry width="200" height="200" as="geometry" />
        </mxCell>
        <mxCell id="CI35cIFT2is_V0Kbj9Z2-4" value="" style="rounded=0;whiteSpace=wrap;html=1;fillColor=#dae8fc;strokeColor=#6c8ebf;" vertex="1" parent="CI35cIFT2is_V0Kbj9Z2-33">
          <mxGeometry x="20" y="10" width="160" height="60" as="geometry" />
        </mxCell>
        <mxCell id="CI35cIFT2is_V0Kbj9Z2-1" value="CPU" style="rounded=0;whiteSpace=wrap;html=1;" vertex="1" parent="CI35cIFT2is_V0Kbj9Z2-33">
          <mxGeometry x="30" y="20" width="40" height="40" as="geometry" />
        </mxCell>
        <mxCell id="CI35cIFT2is_V0Kbj9Z2-2" value="NPU" style="rounded=0;whiteSpace=wrap;html=1;" vertex="1" parent="CI35cIFT2is_V0Kbj9Z2-33">
          <mxGeometry x="80" y="20" width="40" height="40" as="geometry" />
        </mxCell>
        <mxCell id="CI35cIFT2is_V0Kbj9Z2-3" value="GPU" style="rounded=0;whiteSpace=wrap;html=1;" vertex="1" parent="CI35cIFT2is_V0Kbj9Z2-33">
          <mxGeometry x="130" y="20" width="40" height="40" as="geometry" />
        </mxCell>
        <mxCell id="CI35cIFT2is_V0Kbj9Z2-6" value="MIC" style="rounded=0;whiteSpace=wrap;html=1;" vertex="1" parent="CI35cIFT2is_V0Kbj9Z2-33">
          <mxGeometry x="20" y="80" width="50" height="30" as="geometry" />
        </mxCell>
        <mxCell id="CI35cIFT2is_V0Kbj9Z2-7" value="Buzzer" style="rounded=0;whiteSpace=wrap;html=1;" vertex="1" parent="CI35cIFT2is_V0Kbj9Z2-33">
          <mxGeometry x="75" y="80" width="50" height="30" as="geometry" />
        </mxCell>
        <mxCell id="CI35cIFT2is_V0Kbj9Z2-8" value="IMU" style="rounded=0;whiteSpace=wrap;html=1;fillColor=#dae8fc;strokeColor=#6c8ebf;" vertex="1" parent="CI35cIFT2is_V0Kbj9Z2-33">
          <mxGeometry x="130" y="80" width="50" height="30" as="geometry" />
        </mxCell>
        <mxCell id="CI35cIFT2is_V0Kbj9Z2-9" value="Sensor" style="rounded=0;whiteSpace=wrap;html=1;" vertex="1" parent="CI35cIFT2is_V0Kbj9Z2-33">
          <mxGeometry x="20" y="120" width="50" height="30" as="geometry" />
        </mxCell>
        <mxCell id="CI35cIFT2is_V0Kbj9Z2-10" value="UWB" style="rounded=0;whiteSpace=wrap;html=1;" vertex="1" parent="CI35cIFT2is_V0Kbj9Z2-33">
          <mxGeometry x="75" y="120" width="55" height="30" as="geometry" />
        </mxCell>
        <mxCell id="CI35cIFT2is_V0Kbj9Z2-11" value="GPS" style="rounded=0;whiteSpace=wrap;html=1;fillColor=#dae8fc;strokeColor=#6c8ebf;" vertex="1" parent="CI35cIFT2is_V0Kbj9Z2-33">
          <mxGeometry x="140" y="120" width="40" height="30" as="geometry" />
        </mxCell>
        <mxCell id="CI35cIFT2is_V0Kbj9Z2-12" value="BLE" style="rounded=0;whiteSpace=wrap;html=1;fillColor=#dae8fc;strokeColor=#6c8ebf;" vertex="1" parent="CI35cIFT2is_V0Kbj9Z2-33">
          <mxGeometry x="20" y="160" width="40" height="30" as="geometry" />
        </mxCell>
        <mxCell id="CI35cIFT2is_V0Kbj9Z2-13" value="5G" style="rounded=0;whiteSpace=wrap;html=1;fillColor=#dae8fc;strokeColor=#6c8ebf;" vertex="1" parent="CI35cIFT2is_V0Kbj9Z2-33">
          <mxGeometry x="70" y="160" width="40" height="30" as="geometry" />
        </mxCell>
        <mxCell id="CI35cIFT2is_V0Kbj9Z2-14" value="PMIC" style="rounded=0;whiteSpace=wrap;html=1;fillColor=#dae8fc;strokeColor=#6c8ebf;" vertex="1" parent="CI35cIFT2is_V0Kbj9Z2-33">
          <mxGeometry x="120" y="160" width="60" height="30" as="geometry" />
        </mxCell>
        <mxCell id="CI35cIFT2is_V0Kbj9Z2-35" value="" style="endArrow=classic;html=1;rounded=0;entryX=0.998;entryY=0.014;entryDx=0;entryDy=0;entryPerimeter=0;exitX=0;exitY=0;exitDx=0;exitDy=0;" edge="1" parent="1" source="CI35cIFT2is_V0Kbj9Z2-16" target="CI35cIFT2is_V0Kbj9Z2-15">
          <mxGeometry width="50" height="50" relative="1" as="geometry">
            <mxPoint x="320" y="270" as="sourcePoint" />
            <mxPoint x="370" y="220" as="targetPoint" />
          </mxGeometry>
        </mxCell>
        <mxCell id="CI35cIFT2is_V0Kbj9Z2-36" value="" style="endArrow=classic;html=1;rounded=0;entryX=1;entryY=1;entryDx=0;entryDy=0;exitX=0;exitY=1;exitDx=0;exitDy=0;" edge="1" parent="1" source="CI35cIFT2is_V0Kbj9Z2-16" target="CI35cIFT2is_V0Kbj9Z2-15">
          <mxGeometry width="50" height="50" relative="1" as="geometry">
            <mxPoint x="340" y="300" as="sourcePoint" />
            <mxPoint x="390" y="250" as="targetPoint" />
          </mxGeometry>
        </mxCell>
        <mxCell id="CI35cIFT2is_V0Kbj9Z2-44" value="" style="sketch=0;aspect=fixed;pointerEvents=1;shadow=0;dashed=0;html=1;strokeColor=none;labelPosition=center;verticalLabelPosition=bottom;verticalAlign=top;align=center;fillColor=#00188D;shape=mxgraph.mscae.enterprise.android_phone" vertex="1" parent="1">
          <mxGeometry x="320" y="485" width="30" height="50" as="geometry" />
        </mxCell>
        <mxCell id="CI35cIFT2is_V0Kbj9Z2-46" value="Cloud" style="ellipse;shape=cloud;whiteSpace=wrap;html=1;" vertex="1" parent="1">
          <mxGeometry x="302.5" y="380" width="65" height="50" as="geometry" />
        </mxCell>
        <mxCell id="CI35cIFT2is_V0Kbj9Z2-50" value="" style="group" vertex="1" connectable="0" parent="1">
          <mxGeometry x="190" y="470" width="145" height="134" as="geometry" />
        </mxCell>
        <mxCell id="CI35cIFT2is_V0Kbj9Z2-42" value="Robot" style="shape=umlActor;verticalLabelPosition=bottom;verticalAlign=top;html=1;outlineConnect=0;" vertex="1" parent="CI35cIFT2is_V0Kbj9Z2-50">
          <mxGeometry width="40" height="75" as="geometry" />
        </mxCell>
        <mxCell id="CI35cIFT2is_V0Kbj9Z2-47" value="" style="sketch=0;aspect=fixed;pointerEvents=1;shadow=0;dashed=0;html=1;strokeColor=none;labelPosition=center;verticalLabelPosition=bottom;verticalAlign=top;align=center;fillColor=#00188D;shape=mxgraph.mscae.enterprise.android_phone" vertex="1" parent="CI35cIFT2is_V0Kbj9Z2-50">
          <mxGeometry x="15.5" y="2.5" width="9" height="15" as="geometry" />
        </mxCell>
        <mxCell id="CI35cIFT2is_V0Kbj9Z2-51" value="" style="endArrow=classic;html=1;rounded=0;" edge="1" parent="1">
          <mxGeometry width="50" height="50" relative="1" as="geometry">
            <mxPoint x="310" y="510" as="sourcePoint" />
            <mxPoint x="220" y="480" as="targetPoint" />
          </mxGeometry>
        </mxCell>
        <mxCell id="CI35cIFT2is_V0Kbj9Z2-54" value="" style="endArrow=classic;html=1;rounded=0;dashed=1;strokeColor=light-dark(#3399FF,#8282FF);" edge="1" parent="1">
          <mxGeometry width="50" height="50" relative="1" as="geometry">
            <mxPoint x="410" y="600" as="sourcePoint" />
            <mxPoint x="350" y="515" as="targetPoint" />
          </mxGeometry>
        </mxCell>
        <mxCell id="CI35cIFT2is_V0Kbj9Z2-55" value="" style="endArrow=classic;html=1;rounded=0;dashed=1;strokeColor=#00994D;" edge="1" parent="1">
          <mxGeometry width="50" height="50" relative="1" as="geometry">
            <mxPoint x="410" y="430" as="sourcePoint" />
            <mxPoint x="350" y="508" as="targetPoint" />
          </mxGeometry>
        </mxCell>
        <mxCell id="CI35cIFT2is_V0Kbj9Z2-56" value="LLM" style="rounded=0;whiteSpace=wrap;html=1;" vertex="1" parent="1">
          <mxGeometry x="550" y="470" width="80" height="19.5" as="geometry" />
        </mxCell>
        <mxCell id="CI35cIFT2is_V0Kbj9Z2-57" value="VLM" style="rounded=0;whiteSpace=wrap;html=1;" vertex="1" parent="1">
          <mxGeometry x="550" y="497.75" width="80" height="19.5" as="geometry" />
        </mxCell>
        <mxCell id="CI35cIFT2is_V0Kbj9Z2-58" value="VLA" style="rounded=0;whiteSpace=wrap;html=1;" vertex="1" parent="1">
          <mxGeometry x="550" y="524.75" width="80" height="19.5" as="geometry" />
        </mxCell>
        <mxCell id="CI35cIFT2is_V0Kbj9Z2-59" value="ViLLA" style="rounded=0;whiteSpace=wrap;html=1;" vertex="1" parent="1">
          <mxGeometry x="550" y="549.5" width="80" height="19.5" as="geometry" />
        </mxCell>
        <mxCell id="CI35cIFT2is_V0Kbj9Z2-62" value="" style="group;fillColor=#dae8fc;strokeColor=#6c8ebf;container=0;" vertex="1" connectable="0" parent="1">
          <mxGeometry x="414" y="430" width="100" height="110" as="geometry" />
        </mxCell>
        <mxCell id="CI35cIFT2is_V0Kbj9Z2-63" value="情感感知" style="rounded=0;whiteSpace=wrap;html=1;" vertex="1" parent="1">
          <mxGeometry x="424" y="551.38" width="80" height="15.75" as="geometry" />
        </mxCell>
        <mxCell id="CI35cIFT2is_V0Kbj9Z2-64" value="意图感知" style="rounded=0;whiteSpace=wrap;html=1;" vertex="1" parent="1">
          <mxGeometry x="424" y="577" width="80" height="15.75" as="geometry" />
        </mxCell>
        <mxCell id="CI35cIFT2is_V0Kbj9Z2-65" value="" style="endArrow=classic;html=1;rounded=0;entryX=0.423;entryY=0.968;entryDx=0;entryDy=0;entryPerimeter=0;dashed=1;" edge="1" parent="1" target="CI35cIFT2is_V0Kbj9Z2-46">
          <mxGeometry width="50" height="50" relative="1" as="geometry">
            <mxPoint x="330" y="480" as="sourcePoint" />
            <mxPoint x="360" y="440" as="targetPoint" />
          </mxGeometry>
        </mxCell>
        <mxCell id="CI35cIFT2is_V0Kbj9Z2-66" value="" style="endArrow=classic;html=1;rounded=0;exitX=0.577;exitY=1;exitDx=0;exitDy=0;exitPerimeter=0;dashed=1;" edge="1" parent="1" source="CI35cIFT2is_V0Kbj9Z2-46">
          <mxGeometry width="50" height="50" relative="1" as="geometry">
            <mxPoint x="338.25" y="430" as="sourcePoint" />
            <mxPoint x="340" y="482.5" as="targetPoint" />
          </mxGeometry>
        </mxCell>
        <mxCell id="CI35cIFT2is_V0Kbj9Z2-61" value="" style="rounded=0;whiteSpace=wrap;html=1;fillColor=#d5e8d4;strokeColor=#82b366;" vertex="1" parent="1">
          <mxGeometry x="414" y="430" width="100" height="110" as="geometry" />
        </mxCell>
        <mxCell id="CI35cIFT2is_V0Kbj9Z2-45" value="语音通话" style="rounded=0;whiteSpace=wrap;html=1;" vertex="1" parent="1">
          <mxGeometry x="424" y="440" width="80" height="18" as="geometry" />
        </mxCell>
        <mxCell id="CI35cIFT2is_V0Kbj9Z2-48" value="超级助理" style="rounded=0;whiteSpace=wrap;html=1;" vertex="1" parent="1">
          <mxGeometry x="424" y="465" width="80" height="15" as="geometry" />
        </mxCell>
        <mxCell id="CI35cIFT2is_V0Kbj9Z2-52" value="智能传输" style="rounded=0;whiteSpace=wrap;html=1;" vertex="1" parent="1">
          <mxGeometry x="424" y="513" width="80" height="15.75" as="geometry" />
        </mxCell>
        <mxCell id="CI35cIFT2is_V0Kbj9Z2-60" value="情景感知" style="rounded=0;whiteSpace=wrap;html=1;" vertex="1" parent="1">
          <mxGeometry x="424" y="488.75" width="80" height="15" as="geometry" />
        </mxCell>
        <mxCell id="CI35cIFT2is_V0Kbj9Z2-84" value="New Future" style="rounded=0;whiteSpace=wrap;html=1;" vertex="1" parent="1">
          <mxGeometry x="550" y="577" width="80" height="23" as="geometry" />
        </mxCell>
      </root>
    </mxGraphModel>
  </diagram>
</mxfile>
